<?xml version="1.0" encoding="UTF-8" standalone="no"?>
<svg
   xmlns:dc="http://purl.org/dc/elements/1.1/"
   xmlns:cc="http://creativecommons.org/ns#"
   xmlns:rdf="http://www.w3.org/1999/02/22-rdf-syntax-ns#"
   xmlns:svg="http://www.w3.org/2000/svg"
   xmlns="http://www.w3.org/2000/svg"
   height="289.97"
   width="287.84"
   version="1.1"
   viewBox="0 0 287.84 289.97"
   data-name="color logo"
   id="color_logo">
  <metadata
     id="metadata33">
    <rdf:RDF>
      <cc:Work
         rdf:about="">
        <dc:format>image/svg+xml</dc:format>
        <dc:type
           rdf:resource="http://purl.org/dc/dcmitype/StillImage" />
        <dc:title>Artboard 1300px</dc:title>
      </cc:Work>
    </rdf:RDF>
  </metadata>
  <defs
     id="defs4">
    <style
       id="style2">.cls-1{fill:#446ca9;}.cls-2{fill:none;}.cls-3{fill:#46a8c6;}.cls-4{fill:#4d72a5;}</style>
  </defs>
  <title
     id="title6">Artboard 1300px</title>
  <path
     style="fill:#446ca9"
     id="path8"
     d="M 4.38,1.14678e-5 H 39.83 A 4.38,4.38 0 0 1 44.2,4.3600115 V 209.24001 a 4.38,4.38 0 0 1 -4.38,4.38 H 4.38 A 4.38,4.38 0 0 1 0,209.24001 V 4.3600115 A 4.37,4.37 0 0 1 4.38,1.14678e-5 Z"
     class="cls-1" />
  <polygon
     transform="translate(-69.1,-64.639989)"
     style="fill:none"
     id="polygon10"
     points="165.17,172.28 200.2,232.95 200.69,232.09 203.25,233.55 202.63,234.63 273.17,234.63 308.46,173.51 305.83,173.51 305.83,170.57 308.18,170.57 273.17,109.92 202.26,109.92 203.25,111.67 200.68,113.11 200.01,111.93 "
     class="cls-2" />
  <path
     style="fill:#46a8c6"
     id="path12"
     d="m 204.07,45.280011 35,60.639999 h 48.73 a 20.52,20.52 0 0 0 -2.65,-8.579999 l -49.62,-85.98 A 20.58,20.58 0 0 0 217.7,1.0900115 h -99.27 a 20.51,20.51 0 0 0 -9,2.12 l 23.73,42.0799995 z"
     class="cls-3" />
  <path
     style="fill:#46a8c6"
     id="path14"
     d="m 204.07,169.99001 h -70.54 l -24.08,42.09 a 20.51,20.51 0 0 0 9,2.11 h 99.25 a 20.58,20.58 0 0 0 17.82,-10.29 l 49.64,-86 a 20.52,20.52 0 0 0 2.68,-9.06 h -48.48 z"
     class="cls-3" />
  <path
     style="fill:#446ca9"
     id="path16"
     d="M 96.07,107.64001 130.9,47.290011 106.9,4.6800115 a 20.51,20.51 0 0 0 -6.29,6.6799995 l -49.64,86 a 20.58,20.58 0 0 0 0,20.579999 l 49.64,86 a 20.51,20.51 0 0 0 6.29,6.7 l 24.2,-42.28 z"
     class="cls-1" />
  <path
     style="fill:#4d72a5"
     id="path18"
     d="m 47.275,287.86001 c 0.84,0.92 0.31,1.22 -0.38,1.22 h -4.9 c -0.85,0 -1.23,-0.31 -2,-1.22 l -18.77,-17.94 v 17.94 c 0,0.92 -0.31,1.22 -1.22,1.22 h -3.3 c -0.92,0 -1.22,-0.31 -1.22,-1.22 v -54.1 c 0,-0.92 0.31,-1.23 1.22,-1.23 h 3.3 c 1,0 1.22,0.31 1.22,1.23 v 33.49 l 17.78,-15.94 c 0.76,-0.92 1.15,-1.22 2,-1.22 h 4.83 c 0.76,0 1,0.61 0.38,1.22 l -19.17,17.05 z"
     class="cls-4" />
  <path
     style="fill:#4d72a5"
     id="path20"
     d="m 62.435,254.45001 -0.61,-2.3 c -0.23,-0.84 0,-1.22 0.92,-1.53 a 72.61,72.61 0 0 1 13.18,-1.38 c 12.87,0 16.4,5.75 16.4,18.39 v 20.23 c 0,0.92 -0.31,1.22 -1.15,1.22 h -2.22 c -0.61,0 -0.92,-0.31 -1.15,-1.22 l -0.31,-5.21 a 18.9,18.9 0 0 1 -15.4,7.28 c -7.36,0 -13.64,-4.52 -13.64,-12.72 0,-8.35 6.28,-12.41 15.71,-12.41 a 33.76,33.76 0 0 1 12.41,2.67 c 0,-9.65 -2.83,-13.18 -10.88,-13.18 a 63,63 0 0 0 -11.8,1.22 c -1,0.24 -1.23,-0.15 -1.46,-1.06 z m 1.76,22.76 c 0,4.75 3.45,8.2 9.65,8.2 5.29,0 10.27,-3.6 12.72,-7.2 v -6.36 c -3.91,-1.61 -6.9,-2.76 -11.26,-2.76 -7.27,-0.01 -11.11,2.9 -11.11,8.11 z"
     class="cls-4" />
  <path
     style="fill:#4d72a5"
     id="path22"
     d="m 131.575,278.12001 c 0,-3.37 -3.83,-5.13 -10.8,-6.13 -7.59,-1 -14.87,-2.76 -14.87,-10.8 0,-7.28 5.67,-12 14.71,-12 a 28.12,28.12 0 0 1 14.64,4.29 c 0.92,0.53 0.77,1 0.38,1.68 l -1,1.84 c -0.38,0.77 -0.76,1.15 -1.68,0.54 -4.14,-2.53 -7.05,-3.68 -12,-3.68 -6.43,0 -9.58,2.76 -9.58,7 0,4.24 3.83,5 10.8,6 7.58,1.07 14.94,3.53 14.94,11 0,7.05 -5.83,12.11 -15.71,12.11 a 29.45,29.45 0 0 1 -15.79,-4.9 c -0.69,-0.46 -0.69,-0.84 -0.23,-1.68 l 1.07,-1.92 c 0.38,-0.77 0.76,-1.15 1.69,-0.46 a 22.74,22.74 0 0 0 12.95,4.29 c 7.48,-0.05 10.48,-3.27 10.48,-7.18 z"
     class="cls-4" />
  <path
     style="fill:#4d72a5"
     id="path24"
     d="m 166.705,289.92001 c -10.11,0 -13.87,-6.36 -13.87,-17 v -18.09 h -3.76 c -0.92,0 -1.22,-0.31 -1.22,-1.23 v -2.3 c 0,-1 0.31,-1.22 1.22,-1.22 h 3.76 v -7.89 c 0,-0.92 0.23,-1.23 1.15,-1.23 h 3.37 c 0.92,0 1.15,0.31 1.15,1.23 v 7.89 h 13.87 c 0.84,0 1.15,0.23 1.15,1.22 v 2.3 c 0,0.92 -0.23,1.23 -1.15,1.23 h -13.87 v 17.62 c 0,9 2.68,12.26 8.81,12.26 a 9.73,9.73 0 0 0 5.26,-1.15 c 1,-0.54 1.23,-0.46 1.53,0.61 l 0.46,2.45 c 0.23,0.76 0.15,1.07 -0.54,1.46 a 14.34,14.34 0 0 1 -7.32,1.84 z"
     class="cls-4" />
  <path
     style="fill:#4d72a5"
     id="path26"
     d="m 221.325,282.87001 c 0.54,0.69 0.54,1.15 0,1.68 -3.6,3.53 -9.81,5.36 -15.48,5.36 a 20.35,20.35 0 0 1 -0.38,-40.69 c 12,0 18.93,9.66 18.93,21.15 0,0.92 -0.15,1.23 -1.15,1.23 h -32 c 0.54,7.12 7.05,13.26 14.79,13.26 a 21,21 0 0 0 12,-3.83 c 0.84,-0.46 1.15,-0.61 1.76,0.08 z m -2.83,-15.25 c -0.31,-6.9 -5.29,-13.57 -13.1,-13.57 a 14.19,14.19 0 0 0 -13.95,13.57 z"
     class="cls-4" />
  <path
     style="fill:#4d72a5"
     id="path28"
     d="m 244.075,258.20001 c 1.61,-3.07 5.6,-9 13.11,-9 8.2,0 15.17,5 15.17,17.24 v 21.42 c 0,0.92 -0.31,1.22 -1.15,1.22 h -3.45 c -0.84,0 -1.15,-0.31 -1.15,-1.22 v -19.85 c 0,-9.12 -4.6,-13.56 -10.8,-13.56 -6.67,0 -11,6.43 -11,14.1 v 19.31 c 0,0.92 -0.31,1.22 -1.15,1.22 h -3.45 c -0.84,0 -1.15,-0.31 -1.15,-1.22 v -36.56 c 0,-0.92 0.31,-1.22 1.15,-1.22 h 1.92 c 0.61,0 0.92,0.31 1.3,1.22 z"
     class="cls-4" />
</svg>
