<?xml version="1.0" encoding="utf-8"?>
<!-- Generator: Adobe Illustrator 25.2.0, SVG Export Plug-In . SVG Version: 6.00 Build 0)  -->
<svg version="1.1" id="Layer_1" xmlns="http://www.w3.org/2000/svg" xmlns:xlink="http://www.w3.org/1999/xlink" x="0px" y="0px"
     viewBox="0 0 357.1074829 165" style="enable-background:new 0 0 357.1074829 165;" xml:space="preserve">
<style type="text/css">
    .st0{fill:#A453B9;}
    .st1{fill:#FFFFFF;}
    .st2{fill:#344845;}
    .st3{fill:#D13306;}
    .st4{fill:#004D93;}
    .st5{fill:#0081BE;}
    .st6{fill:#1167F1;}
    .st7{fill:#FFC400;}
    .st8{fill:#FF7A3D;}
    .st9{fill:#00A580;}
    .st10{fill:#53C3D0;}
    .st11{fill:#671C4C;}
    .st12{fill:#00E3C2;}
    .st13{fill:#BC2A46;}
    .st14{fill:#FF192E;}
    .st15{fill:#00B056;}
</style>
<g>
    <g>
        <path class="st6" d="M180,165H20c-11,0-20-9-20-20V20C0,9,9,0,20,0h160c11,0,20,9,20,20v125C200,156,191,165,180,165z"/>
        <g>
            <g>
                <path class="st1" d="M52.9070129,82.2501221c-16.5420532,0-30,13.4580078-30,30s13.4579468,30,30,30s30-13.4580078,30-30
                    S69.4490662,82.2501221,52.9070129,82.2501221z M52.9070129,122.2501221c-5.5228271,0-10-4.4771729-10-10
                    c0-5.5229492,4.4771729-10,10-10s10,4.4770508,10,10C62.9070129,117.7729492,58.4298401,122.2501221,52.9070129,122.2501221z"/>
                <path class="st1" d="M164.3251038,95.4592285V80.5350342c0-7.4941406-6.0966797-13.5908203-13.5908203-13.5908203h-37.7363281
                    l-8.8461914-36.546875c-1.0859375-4.4873047-5.1025391-7.6474609-9.7192383-7.6474609H39.6219788
                    c-5.5229492,0-10,4.4770508-10,10s4.4770508,10,10,10h3.5698242v13.2929688h-3.5698242c-5.5229492,0-10,4.4770508-10,10
                    s4.4770508,10,10,10h16.4418945c18.2241211,0,33.050293,14.8261719,33.050293,33.0620117l0.0068359,5.8686523
                    c0.0063477,5.5180664,4.4819336,9.9882812,10,9.9882812h29.1947021
                    c3.2584229,10.0218506,12.6829224,17.2883301,23.7772827,17.2883301c13.7850342,0,25-11.2149658,25-25
                    C177.0929871,107.9068604,171.9375305,99.7493896,164.3251038,95.4592285z M63.191803,56.5305176V42.7498779h23.3725586
                    l6.9835815,28.8518066C85.5302429,63.5854492,74.9694519,58.119873,63.191803,56.5305176z M104.231842,86.9046631
                    c0.2943726,0.0266113,0.5908813,0.0419922,0.8896484,0.0419922c0.0136108,0,0.0275269-0.0024414,0.0411377-0.0024414h39.1624756
                    v6.5476074c-5.963562,1.954834-10.942627,6.0942383-13.9906616,11.4699707h-21.3794556
                    C108.4590149,98.557373,106.8083191,92.4749756,104.231842,86.9046631z M152.0929871,122.2501221c-2.7614746,0-5-2.2386475-5-5
                    c0-2.7614746,2.2385254-5,5-5c2.7614136,0,5,2.2385254,5,5
                    C157.0929871,120.0114746,154.8544006,122.2501221,152.0929871,122.2501221z"/>
            </g>
        </g>
    </g>
    <g>
        <path class="st2" d="M230.5098114,57.0761719h20.8486328c9.8994293,0,16.574234,4.7998047,16.574234,14.0996094
            c0,7.5742188-5.1748047,12.1494141-10.1992188,13.7246094c1.5,1.2744141,2.625,3,3.5244141,4.7998047
            c2.1005859,4.2744141,3.5253906,8.9990234,7.9501953,8.9990234c1.125,0,2.0244141-0.375,2.0244141-0.375l-0.9746094,8.9248047
            c0,0-2.7001953,0.6748047-5.0244141,0.6748047c-6,0-9.4502106-2.3242188-12.9746246-10.3496094
            c-1.5-3.5996094-3.6005859-9.8994141-6.375-9.8994141h-2.8496094v20.0244141h-12.5244141V57.0761719z M243.0342255,66.1513672
            v12.4492188h4.5c3.5996094,0,7.7988281-1.125,7.7988281-6.5253906c0-4.4248047-2.8496094-5.9238281-6.2998047-5.9238281
            H243.0342255z"/>
        <path class="st2" d="M276.484436,57.0761719h12.5244141v14.1748047c0,1.5742188-0.2255859,3.8994141-0.375,5.6240234h0.2998047
            c0.8251953-1.2744141,1.875-3.2246094,3.1494141-4.7246094l12.375-15.0742188h13.4990234l-16.4990234,19.8740234
            l17.3994141,30.7490234h-14.3994141l-11.6992188-21.2246094l-3.75,4.5751953v16.6494141H276.484436V57.0761719z"/>
        <path class="st2" d="M322.8340454,57.0761719h33.5234375v9.2998047h-20.9990234V77.25h17.6240234v9.2998047h-17.6240234
            v11.8496094h21.7490234v9.2998047h-34.2734375V57.0761719z"/>
    </g>
</g>
</svg>
