<svg width="480" height="492" viewBox="0 0 480 492" fill="none" xmlns="http://www.w3.org/2000/svg">
<g opacity="0.04">
<path d="M289.386 141.853L234.879 236.999L224.043 238.77L227.061 151.897L289.386 141.853Z" fill="url(#paint0_linear_477_26018)"/>
</g>
<g opacity="0.04">
<path d="M227.061 151.897L224.042 238.77L217.094 230.236L187.202 102.961L227.061 151.897Z" fill="url(#paint1_linear_477_26018)"/>
</g>
<g opacity="0.04">
<path opacity="0.77" d="M67.744 306.107L196.276 265.638L209.371 263.527L143.088 293.94L67.744 306.107Z" fill="url(#paint2_linear_477_26018)"/>
</g>
<g opacity="0.04">
<path opacity="0.77" d="M143.088 293.94L209.371 263.527L217.845 273.806L191.344 353.143L143.088 293.94Z" fill="url(#paint3_linear_477_26018)"/>
</g>
<g opacity="0.77">
<path opacity="0.04" d="M140.286 127.565L208.921 234.489L206.148 241.828L124.266 169.732L140.286 127.565Z" fill="url(#paint4_linear_477_26018)"/>
</g>
<g opacity="0.04">
<path opacity="0.77" d="M124.266 169.732L206.148 241.828L198.388 243.079L79.7972 176.948L124.266 169.732Z" fill="url(#paint5_linear_477_26018)"/>
</g>
<g opacity="0.04">
<path d="M346.995 343.236L244.887 272.086L236.567 261.832L299.201 284.581L346.995 343.236Z" fill="url(#paint6_linear_477_26018)"/>
</g>
<path d="M404.006 196.158L254.818 246.475L250.044 247.269L376.513 200.639L404.006 196.158Z" fill="url(#paint7_linear_477_26018)"/>
<path d="M376.513 200.639L250.044 247.269L246.967 243.461L358.873 179.024L376.513 200.639Z" fill="url(#paint8_linear_477_26018)"/>
<path d="M299.201 284.581L236.567 261.832L241.253 249.532L326.011 213.953L299.201 284.581Z" fill="url(#paint9_linear_477_26018)"/>
<path d="M98.4194 181.959L201.622 244.001L207.134 250.726L130.009 220.808L98.4194 181.959Z" fill="url(#paint10_linear_477_26018)" fill-opacity="0.2"/>
<path d="M130.009 220.808L207.134 250.726L204.07 258.883L112.292 267.578L130.009 220.808Z" fill="url(#paint11_linear_477_26018)" fill-opacity="0.3"/>
<path d="M112.292 267.578L204.07 258.883L195.416 260.303L62.8071 275.627L112.292 267.578Z" fill="url(#paint12_linear_477_26018)" fill-opacity="0.3"/>
<g opacity="0.75">
<path opacity="0.75" d="M200.127 131.282L219.357 235.171L217.71 239.467L190.628 156.176L200.127 131.282Z" fill="url(#paint13_linear_477_26018)"/>
</g>
<g opacity="0.75">
<path opacity="0.75" d="M190.628 156.176L217.711 239.467L213.103 240.21L164.36 160.385L190.628 156.176Z" fill="url(#paint14_linear_477_26018)"/>
</g>
<g opacity="0.75">
<path opacity="0.75" d="M164.36 160.385L213.103 240.21L210.142 236.656L147.578 139.776L164.36 160.385Z" fill="url(#paint15_linear_477_26018)"/>
</g>
<path d="M358.872 179.024L246.967 243.461L248.728 238.947L368.789 153.017L358.872 179.024Z" fill="url(#paint16_linear_477_26018)"/>
<g opacity="0.75">
<path opacity="0.75" d="M333.279 194.519L242.506 246.195L237.005 247.106L301.51 199.638L333.279 194.519Z" fill="url(#paint17_linear_477_26018)" fill-opacity="0.1"/>
</g>
<g opacity="0.75">
<path opacity="0.75" d="M301.51 199.638L237.005 247.106L233.467 242.75L281.19 174.673L301.51 199.638Z" fill="url(#paint18_linear_477_26018)" fill-opacity="0.3"/>
</g>
<g opacity="0.75">
<path opacity="0.75" d="M281.19 174.673L233.467 242.75L235.43 237.482L292.639 144.588L281.19 174.673Z" fill="url(#paint19_linear_477_26018)" fill-opacity="0.2"/>
</g>
<path d="M187.687 383.714L217.134 279.121L224.563 277.973L229.973 376.849L187.687 383.714Z" fill="url(#paint20_linear_477_26018)" fill-opacity="0.4"/>
<path d="M229.973 376.849L224.563 277.973L229.293 283.705L257.049 410.081L229.973 376.849Z" fill="url(#paint21_linear_477_26018)" fill-opacity="0.3"/>
<path d="M172.4 423.797L214.5 286.089L217.134 279.121L187.687 383.714L172.4 423.797Z" fill="url(#paint22_linear_477_26018)" fill-opacity="0.2"/>
<path d="M244.485 346.32L227.087 272.64L231.861 271.846L272.055 341.852L244.485 346.32Z" fill="url(#paint23_linear_477_26018)"/>
<path d="M272.054 341.852L231.861 271.846L234.95 275.578L289.618 363.455L272.054 341.852Z" fill="url(#paint24_linear_477_26018)"/>
<path d="M234.645 372.339L225.326 277.154L227.087 272.64L244.485 346.32L234.645 372.339Z" fill="url(#paint25_linear_477_26018)"/>
<g opacity="0.66">
<path opacity="0.66" d="M201.101 333.407L219.507 270.378L223.387 269.753L223.412 329.811L201.101 333.407Z" fill="url(#paint26_linear_477_26018)"/>
</g>
<g opacity="0.66">
<path opacity="0.66" d="M223.412 329.812L223.387 269.753L225.887 272.759L237.643 347.249L223.412 329.812Z" fill="url(#paint27_linear_477_26018)"/>
</g>
<g opacity="0.66">
<path opacity="0.66" d="M193.098 354.452L218.127 274.009L219.507 270.378L201.101 333.407L193.098 354.452Z" fill="url(#paint28_linear_477_26018)"/>
</g>
<g opacity="0.04">
<path opacity="0.74" d="M285.114 312.503L234.117 266.705L238.725 265.963L311.382 308.295L285.114 312.503Z" fill="url(#paint29_linear_477_26018)"/>
</g>
<g opacity="0.74">
<path opacity="0.74" d="M275.616 337.397L232.459 271.078L234.118 266.705L285.115 312.503L275.616 337.397Z" fill="url(#paint30_linear_477_26018)" fill-opacity="0.2"/>
</g>
<path d="M159.711 168.125L252.835 153.118L312.372 226.128L278.926 314.247L185.866 329.343L126.265 256.244L159.711 168.125Z" fill="url(#paint31_linear_477_26018)"/>
<path opacity="0.2" d="M209.669 43.9799L271.918 33.9233L311.776 82.8599L289.386 141.853L227.061 151.897L187.202 102.961L209.669 43.9799Z" fill="url(#paint32_linear_477_26018)"/>
<path opacity="0.5" d="M67.7442 306.107L143.088 293.94L191.344 353.143L164.255 424.512L88.8344 436.667L40.643 377.553L67.7442 306.107Z" fill="url(#paint33_linear_477_26018)"/>
<path opacity="0.2" d="M67.2924 99.8173L111.838 92.6137L140.286 127.565L124.266 169.732L79.7972 176.948L51.2721 141.985L67.2924 99.8173Z" fill="url(#paint34_linear_477_26018)"/>
<path opacity="0.2" d="M326.011 213.953L400.627 201.903L448.434 260.481L421.624 331.11L346.995 343.236L299.201 284.581L326.011 213.953Z" fill="url(#paint35_linear_477_26018)"/>
<path d="M48.9472 189.932L98.4194 181.959L130.009 220.808L112.292 267.578L62.8073 275.627L31.1411 236.766L48.9472 189.932Z" fill="url(#paint36_linear_477_26018)" fill-opacity="0.3"/>
<path d="M157 114.869L183.268 110.661L200.127 131.282L190.628 156.176L164.36 160.385L147.578 139.776L157 114.869Z" fill="url(#paint37_linear_477_26018)"/>
<g opacity="0.75">
<path opacity="0.75" d="M292.639 144.588L324.42 139.392L344.74 164.357L333.279 194.519L301.51 199.638L281.19 174.673L292.639 144.588Z" fill="url(#paint38_linear_477_26018)" fill-opacity="0.6"/>
</g>
<path d="M187.687 383.714L229.973 376.849L257.049 410.081L241.84 450.177L199.554 457.041L172.4 423.797L187.687 383.714Z" fill="url(#paint39_linear_477_26018)" fill-opacity="0.6"/>
<path d="M244.485 346.32L272.055 341.852L289.618 363.455L279.702 389.461L252.209 393.942L234.645 372.339L244.485 346.32Z" fill="url(#paint40_linear_477_26018)"/>
<path d="M368.789 153.017L396.282 148.537L413.846 170.139L404.006 196.158L376.513 200.639L358.872 179.024L368.789 153.017Z" fill="url(#paint41_linear_477_26018)"/>
<g opacity="0.66">
<path opacity="0.66" d="M201.101 333.407L223.412 329.812L237.643 347.249L229.626 368.371L207.392 371.979L193.097 354.452L201.101 333.407Z" fill="url(#paint42_linear_477_26018)"/>
</g>
<g opacity="0.74">
<path opacity="0.74" d="M285.115 312.503L311.382 308.295L328.164 328.904L318.742 353.81L292.474 358.019L275.616 337.397L285.115 312.503Z" fill="url(#paint43_linear_477_26018)" fill-opacity="0.4"/>
</g>
<path d="M187.72 205.887C186.834 204.562 185.428 204.017 183.654 204.278C182.441 204.473 180.784 205.462 180.344 207.673L176.342 222.052C175.899 223.318 176.246 224.083 176.643 224.541C177.169 225.178 178.089 225.328 178.574 225.25L178.651 225.263C179.455 225.158 180.117 224.479 180.331 223.648C180.381 223.342 180.722 222.217 180.962 221.233C181.151 220.555 181.291 220.185 181.328 219.955L186.357 219.045C187.493 218.837 188.141 217.762 187.933 216.626C187.725 215.49 186.675 214.689 185.616 214.909L182.616 215.443L184.346 209.192L184.359 209.116C184.409 208.809 184.485 208.822 184.409 208.809C184.485 208.822 184.575 208.757 184.575 208.757C184.651 208.77 184.767 209.025 184.844 209.038L193.554 221.244C193.81 221.601 194.437 222.097 195.204 222.222C195.753 222.233 196.404 222.103 196.888 221.552C197.715 220.822 197.686 219.558 196.968 218.653L187.72 205.887Z" fill="white"/>
<path d="M208.656 207.812L203.308 208.749C202.007 209.008 200.996 208.45 200.788 207.314C200.58 206.178 201.267 205.346 202.646 205.099L211.324 203.526C212.537 203.33 212.967 202.141 212.811 201.171C212.603 200.036 211.694 199.336 210.635 199.557L201.879 201.117C198.472 201.741 196.412 204.71 196.985 207.952C197.544 211.27 200.514 213.329 203.921 212.706L209.269 211.769C210.571 211.51 211.556 212.222 211.764 213.358C211.972 214.493 211.285 215.326 209.907 215.573L201.241 217.069C200.181 217.289 199.546 218.287 199.766 219.347C199.832 219.908 200.14 220.431 200.563 220.736C200.985 221.041 201.445 221.116 201.93 221.038L210.673 219.555C214.081 218.931 216.127 216.038 215.491 212.707C214.931 209.389 211.911 207.164 208.656 207.812Z" fill="white"/>
<path d="M230.903 195.942L216.799 198.439C215.664 198.647 214.862 199.696 215.083 200.756C215.303 201.815 216.365 202.539 217.501 202.331L222.53 201.422L224.961 214.963C225.169 216.099 226.295 216.913 227.431 216.705C228.567 216.497 229.381 215.37 229.173 214.235L226.754 200.616L231.783 199.706C232.919 199.498 233.72 198.449 233.5 197.39C233.113 196.382 232.039 195.734 230.903 195.942Z" fill="white"/>
<path d="M237.999 198.754L250.571 196.48C251.706 196.272 252.508 195.222 252.287 194.163C252.079 193.027 251.004 192.379 249.869 192.587L237.297 194.862C236.161 195.07 235.36 196.119 235.58 197.179C235.724 198.225 236.863 198.962 237.999 198.754Z" fill="white"/>
<path d="M242.274 205.828L252 204.112C253.136 203.904 253.937 202.854 253.716 201.795C253.496 200.736 252.434 200.011 251.298 200.219L241.087 202.014C240.921 202.065 239.785 202.273 239.352 202.517C239.084 202.71 238.74 202.89 238.473 203.082C237.543 203.953 237.1 205.219 237.283 206.508L237.855 209.75L238.09 211.205C238.451 212.366 239.246 213.283 240.269 213.765C240.563 213.892 240.87 213.942 241.253 214.004C241.79 214.092 243.002 213.897 243.079 213.909L253.379 212.05C254.514 211.842 255.316 210.793 255.095 209.733C254.887 208.598 253.812 207.95 252.677 208.158L242.951 209.874C242.543 209.965 241.942 209.788 241.8 209.214L241.332 206.776C241.267 206.215 241.547 205.946 242.274 205.828Z" fill="white"/>
<path d="M153.571 209.673C152.435 209.881 151.622 211.008 151.83 212.143L154.534 227.383C154.742 228.518 155.869 229.332 157.004 229.124C158.14 228.916 158.954 227.79 158.746 226.654L156.041 211.415C155.846 210.202 154.707 209.465 153.571 209.673Z" fill="white"/>
<path d="M172.882 222.51L164.771 217.721L170.673 210.5C171.36 209.668 171.305 208.557 170.728 207.754C170.343 207.219 169.679 206.953 169.053 206.93C168.427 206.906 167.828 207.202 167.421 207.765L158.974 218.033C158.86 218.251 158.733 218.545 158.772 218.788C158.811 219.03 159.004 219.298 159.221 219.412L170.634 226.157C171.133 226.474 171.669 226.562 172.154 226.484C172.563 226.393 172.983 226.226 173.289 225.803C173.683 225.317 173.949 224.652 173.807 224.078C173.766 223.363 173.381 222.828 172.882 222.51Z" fill="white"/>
<path d="M270.379 188.933C269.077 189.193 268.481 190.433 268.662 191.25L270.743 203.082C268.346 200.407 261.413 192.742 261.196 192.628C260.594 191.978 259.186 190.961 257.641 191.26C255.701 191.572 254.507 193.581 254.884 195.61L257.303 209.229C257.511 210.364 258.56 211.166 259.62 210.945C260.755 210.737 261.403 209.662 261.195 208.527L259.024 196.287L268.712 206.843C269.736 207.797 270.966 208.942 272.51 208.644C274.539 208.267 275.683 206.565 275.267 204.293L272.849 190.675C272.654 189.462 271.591 188.738 270.379 188.933Z" fill="white"/>
<path d="M247.679 234.889L247.526 234.864L241.195 236.033L236.727 248.448L245.213 258.65L251.608 257.569L251.697 257.505L258.091 256.425L262.508 243.845L254.009 233.72L247.679 234.889Z" fill="white"/>
<path d="M273.225 212.46L158.842 232.809C156.902 233.122 155.657 234.965 155.969 236.905L164.954 287.408C165.267 289.348 167.11 290.594 169.05 290.281L283.521 269.868C285.462 269.555 286.707 267.712 286.305 265.836L277.32 215.333C277.008 213.393 275.165 212.147 273.225 212.46ZM184.602 273.618C184.966 275.724 183.542 277.695 181.513 278.071C179.407 278.436 177.436 277.012 177.059 274.982L171.598 244.338C171.234 242.232 172.658 240.261 174.687 239.884C176.717 239.508 178.688 240.932 179.141 242.974L184.602 273.618ZM209.711 266.386C211.426 267.454 211.995 269.75 211.081 271.49C210.624 272.36 209.809 273.014 208.915 273.183C207.92 273.492 207 273.342 206.22 272.821L194.638 265.183L185.247 259.555C185.183 259.466 185.03 259.441 184.889 259.339C184.39 259.022 183.737 258.679 183.633 257.875C183.503 257.224 183.885 256.814 184.279 256.328L193.957 243.82L193.97 243.744L199.757 236.267C200.354 235.499 201.055 235.063 201.949 234.894C202.115 234.842 202.115 234.842 202.268 234.867C203.225 234.788 204.133 235.015 204.888 235.689C206.4 237.038 206.662 239.285 205.442 240.974L199.655 248.451C199.642 248.527 199.553 248.591 199.464 248.656L193.791 255.914L209.711 266.386ZM224.004 235.271L229.414 265.749C229.778 267.855 228.354 269.826 226.324 270.203C224.219 270.567 222.247 269.143 221.871 267.114L217.163 240.528C215.146 240.829 213.175 239.405 212.734 237.286C212.306 235.091 213.832 232.979 216.014 232.627L219.422 232.003L219.499 232.016L219.575 232.029C221.681 231.664 223.665 233.012 224.029 235.118L224.004 235.271ZM270.426 244.037L264.351 260.99C263.908 262.255 262.812 263.178 261.511 263.438C261.511 263.438 257.222 264.154 252.998 264.959C252.921 264.946 252.921 264.946 252.832 265.011C248.543 265.727 244.319 266.532 244.319 266.532C243.017 266.791 241.764 266.272 240.829 265.253L229.228 251.472C228.83 251.014 228.599 250.504 228.533 249.942C228.468 249.381 228.466 248.908 228.72 248.32L234.795 231.367C235.238 230.101 236.334 229.179 237.635 228.919L246.148 227.398L246.314 227.346L254.827 225.825C256.129 225.565 257.471 226.021 258.317 227.104L269.918 240.884C270.316 241.343 270.547 241.853 270.625 242.338C270.691 242.899 270.667 243.525 270.426 244.037Z" fill="white"/>
<defs>
<linearGradient id="paint0_linear_477_26018" x1="259.833" y1="137.024" x2="305.553" y2="150.48" gradientUnits="userSpaceOnUse">
<stop stop-color="#2600FF"/>
<stop offset="1" stop-color="#7000FF"/>
</linearGradient>
<linearGradient id="paint1_linear_477_26018" x1="215.95" y1="107.658" x2="260.845" y2="119.715" gradientUnits="userSpaceOnUse">
<stop stop-color="#2600FF"/>
<stop offset="1" stop-color="#7000FF"/>
</linearGradient>
<linearGradient id="paint2_linear_477_26018" x1="143.788" y1="252.811" x2="224.544" y2="306.649" gradientUnits="userSpaceOnUse">
<stop stop-color="#2600FF"/>
<stop offset="1" stop-color="#7000FF"/>
</linearGradient>
<linearGradient id="paint3_linear_477_26018" x1="184.456" y1="259.456" x2="237.178" y2="277.593" gradientUnits="userSpaceOnUse">
<stop stop-color="#2600FF"/>
<stop offset="1" stop-color="#7000FF"/>
</linearGradient>
<linearGradient id="paint4_linear_477_26018" x1="177.773" y1="133.69" x2="246.818" y2="159.917" gradientUnits="userSpaceOnUse">
<stop stop-color="#2600FF"/>
<stop offset="1" stop-color="#7000FF"/>
</linearGradient>
<linearGradient id="paint5_linear_477_26018" x1="148.798" y1="173.741" x2="227.742" y2="230.325" gradientUnits="userSpaceOnUse">
<stop stop-color="#2600FF"/>
<stop offset="1" stop-color="#7000FF"/>
</linearGradient>
<linearGradient id="paint6_linear_477_26018" x1="296.823" y1="271.678" x2="372.484" y2="320.193" gradientUnits="userSpaceOnUse">
<stop stop-color="#2600FF"/>
<stop offset="1" stop-color="#7000FF"/>
</linearGradient>
<linearGradient id="paint7_linear_477_26018" x1="329.56" y1="246.524" x2="325.892" y2="210.687" gradientUnits="userSpaceOnUse">
<stop stop-color="#0060AA"/>
<stop offset="1" stop-color="white" stop-opacity="0.2"/>
</linearGradient>
<linearGradient id="paint8_linear_477_26018" x1="226.317" y1="275.405" x2="353.594" y2="195.886" gradientUnits="userSpaceOnUse">
<stop stop-color="#0060AA"/>
<stop offset="1" stop-color="white" stop-opacity="0.2"/>
</linearGradient>
<linearGradient id="paint9_linear_477_26018" x1="240.571" y1="237.511" x2="320.077" y2="250.502" gradientUnits="userSpaceOnUse">
<stop stop-color="#0060AA"/>
<stop offset="1" stop-color="white" stop-opacity="0.2"/>
</linearGradient>
<linearGradient id="paint10_linear_477_26018" x1="183.637" y1="215.24" x2="89.7516" y2="218.629" gradientUnits="userSpaceOnUse">
<stop stop-color="#0073C2"/>
<stop offset="0.2451" stop-color="#008CD3"/>
<stop offset="0.7478" stop-color="#00BAF3"/>
<stop offset="1" stop-color="#00CCFF"/>
</linearGradient>
<linearGradient id="paint11_linear_477_26018" x1="167.22" y1="255.524" x2="109.539" y2="241.337" gradientUnits="userSpaceOnUse">
<stop stop-color="#0073C2"/>
<stop offset="0.2451" stop-color="#008CD3"/>
<stop offset="0.7478" stop-color="#00BAF3"/>
<stop offset="1" stop-color="#00CCFF"/>
</linearGradient>
<linearGradient id="paint12_linear_477_26018" x1="145.152" y1="276.01" x2="99.8727" y2="242.262" gradientUnits="userSpaceOnUse">
<stop stop-color="#0073C2"/>
<stop offset="0.2451" stop-color="#008CD3"/>
<stop offset="0.7478" stop-color="#00BAF3"/>
<stop offset="1" stop-color="#00CCFF"/>
</linearGradient>
<linearGradient id="paint13_linear_477_26018" x1="209.948" y1="188.274" x2="193.944" y2="144.389" gradientUnits="userSpaceOnUse">
<stop stop-color="#0060AA"/>
<stop offset="1" stop-color="white" stop-opacity="0.2"/>
</linearGradient>
<linearGradient id="paint14_linear_477_26018" x1="198.604" y1="234.579" x2="180.337" y2="151.119" gradientUnits="userSpaceOnUse">
<stop stop-color="#0060AA"/>
<stop offset="1" stop-color="white" stop-opacity="0.2"/>
</linearGradient>
<linearGradient id="paint15_linear_477_26018" x1="169.178" y1="208.912" x2="199.148" y2="158.095" gradientUnits="userSpaceOnUse">
<stop stop-color="#0060AA"/>
<stop offset="1" stop-color="white" stop-opacity="0.2"/>
</linearGradient>
<linearGradient id="paint16_linear_477_26018" x1="295.6" y1="197.651" x2="361.126" y2="200.739" gradientUnits="userSpaceOnUse">
<stop stop-color="#0060AA"/>
<stop offset="1" stop-color="white" stop-opacity="0.2"/>
</linearGradient>
<linearGradient id="paint17_linear_477_26018" x1="283.391" y1="231.596" x2="292.106" y2="178.259" gradientUnits="userSpaceOnUse">
<stop stop-color="#0073C2"/>
<stop offset="0.2451" stop-color="#008CD3"/>
<stop offset="0.7478" stop-color="#00BAF3"/>
<stop offset="1" stop-color="#00CCFF"/>
</linearGradient>
<linearGradient id="paint18_linear_477_26018" x1="254.343" y1="226.178" x2="304.394" y2="173.404" gradientUnits="userSpaceOnUse">
<stop stop-color="#0073C2"/>
<stop offset="0.2451" stop-color="#008CD3"/>
<stop offset="0.7478" stop-color="#00BAF3"/>
<stop offset="1" stop-color="#00CCFF"/>
</linearGradient>
<linearGradient id="paint19_linear_477_26018" x1="242.029" y1="190.216" x2="284.025" y2="197.078" gradientUnits="userSpaceOnUse">
<stop stop-color="#0073C2"/>
<stop offset="0.2451" stop-color="#008CD3"/>
<stop offset="0.7478" stop-color="#00BAF3"/>
<stop offset="1" stop-color="#00CCFF"/>
</linearGradient>
<linearGradient id="paint20_linear_477_26018" x1="207.79" y1="351.532" x2="209.317" y2="394.638" gradientUnits="userSpaceOnUse">
<stop stop-color="#0073C2"/>
<stop offset="0.2451" stop-color="#008CD3"/>
<stop offset="0.7478" stop-color="#00BAF3"/>
<stop offset="1" stop-color="#00CCFF"/>
</linearGradient>
<linearGradient id="paint21_linear_477_26018" x1="235.046" y1="328.056" x2="245.713" y2="410.433" gradientUnits="userSpaceOnUse">
<stop stop-color="#0073C2"/>
<stop offset="0.2451" stop-color="#008CD3"/>
<stop offset="0.7478" stop-color="#00BAF3"/>
<stop offset="1" stop-color="#00CCFF"/>
</linearGradient>
<linearGradient id="paint22_linear_477_26018" x1="197.207" y1="342.855" x2="181.978" y2="397.192" gradientUnits="userSpaceOnUse">
<stop stop-color="#0073C2"/>
<stop offset="0.2451" stop-color="#008CD3"/>
<stop offset="0.7478" stop-color="#00BAF3"/>
<stop offset="1" stop-color="#00CCFF"/>
</linearGradient>
<linearGradient id="paint23_linear_477_26018" x1="238.111" y1="281.297" x2="257.464" y2="341.602" gradientUnits="userSpaceOnUse">
<stop stop-color="#0060AA"/>
<stop offset="1" stop-color="white" stop-opacity="0.2"/>
</linearGradient>
<linearGradient id="paint24_linear_477_26018" x1="262.339" y1="307.838" x2="256.984" y2="340.613" gradientUnits="userSpaceOnUse">
<stop stop-color="#0060AA"/>
<stop offset="1" stop-color="white" stop-opacity="0.2"/>
</linearGradient>
<linearGradient id="paint25_linear_477_26018" x1="200.152" y1="282.376" x2="254.563" y2="353.488" gradientUnits="userSpaceOnUse">
<stop stop-color="#0060AA"/>
<stop offset="1" stop-color="white" stop-opacity="0.2"/>
</linearGradient>
<linearGradient id="paint26_linear_477_26018" x1="200.66" y1="268.567" x2="230.131" y2="352.43" gradientUnits="userSpaceOnUse">
<stop stop-color="#0060AA"/>
<stop offset="1" stop-color="white" stop-opacity="0.2"/>
</linearGradient>
<linearGradient id="paint27_linear_477_26018" x1="239.015" y1="290.735" x2="213.943" y2="343.145" gradientUnits="userSpaceOnUse">
<stop stop-color="#0060AA"/>
<stop offset="1" stop-color="white" stop-opacity="0.2"/>
</linearGradient>
<linearGradient id="paint28_linear_477_26018" x1="202.444" y1="309.757" x2="217.568" y2="320.164" gradientUnits="userSpaceOnUse">
<stop stop-color="#0060AA"/>
<stop offset="1" stop-color="white" stop-opacity="0.2"/>
</linearGradient>
<linearGradient id="paint29_linear_477_26018" x1="275.293" y1="271.938" x2="324.572" y2="306.215" gradientUnits="userSpaceOnUse">
<stop stop-color="#2600FF"/>
<stop offset="1" stop-color="#7000FF"/>
</linearGradient>
<linearGradient id="paint30_linear_477_26018" x1="235.856" y1="285.834" x2="301.472" y2="341.793" gradientUnits="userSpaceOnUse">
<stop stop-color="#0073C2"/>
<stop offset="0.2451" stop-color="#008CD3"/>
<stop offset="0.7478" stop-color="#00BAF3"/>
<stop offset="1" stop-color="#00CCFF"/>
</linearGradient>
<linearGradient id="paint31_linear_477_26018" x1="234.206" y1="150.074" x2="364.771" y2="201.192" gradientUnits="userSpaceOnUse">
<stop stop-color="#2600FF"/>
<stop offset="1" stop-color="#7000FF"/>
</linearGradient>
<linearGradient id="paint32_linear_477_26018" x1="259.46" y1="31.8878" x2="346.864" y2="66.106" gradientUnits="userSpaceOnUse">
<stop stop-color="#2600FF"/>
<stop offset="1" stop-color="#7000FF"/>
</linearGradient>
<linearGradient id="paint33_linear_477_26018" x1="74.7195" y1="286.728" x2="221.172" y2="312.032" gradientUnits="userSpaceOnUse">
<stop stop-color="#3438CF"/>
<stop offset="1" stop-color="#37A2DE"/>
</linearGradient>
<linearGradient id="paint34_linear_477_26018" x1="102.907" y1="91.1544" x2="165.358" y2="115.597" gradientUnits="userSpaceOnUse">
<stop stop-color="#2600FF"/>
<stop offset="1" stop-color="#7000FF"/>
</linearGradient>
<linearGradient id="paint35_linear_477_26018" x1="385.755" y1="199.473" x2="490.457" y2="240.465" gradientUnits="userSpaceOnUse">
<stop stop-color="#2600FF"/>
<stop offset="1" stop-color="#7000FF"/>
</linearGradient>
<linearGradient id="paint36_linear_477_26018" x1="33.6988" y1="221.125" x2="127.487" y2="236.45" gradientUnits="userSpaceOnUse">
<stop stop-color="#2BF2FF"/>
<stop offset="0.0428141" stop-color="#29F0FF"/>
<stop offset="1" stop-color="#00C4FF"/>
</linearGradient>
<linearGradient id="paint37_linear_477_26018" x1="148.907" y1="131.461" x2="198.744" y2="139.604" gradientUnits="userSpaceOnUse">
<stop stop-color="white" stop-opacity="0.2"/>
<stop offset="1" stop-color="#83BCFF" stop-opacity="0.3"/>
</linearGradient>
<linearGradient id="paint38_linear_477_26018" x1="282.808" y1="164.61" x2="343.112" y2="174.464" gradientUnits="userSpaceOnUse">
<stop stop-color="#2BF2FF"/>
<stop offset="0.0428141" stop-color="#29F0FF"/>
<stop offset="1" stop-color="#00C4FF"/>
</linearGradient>
<linearGradient id="paint39_linear_477_26018" x1="174.612" y1="410.408" x2="254.876" y2="423.523" gradientUnits="userSpaceOnUse">
<stop stop-color="#2BF2FF"/>
<stop offset="0.0428141" stop-color="#29F0FF"/>
<stop offset="1" stop-color="#00C4FF"/>
</linearGradient>
<linearGradient id="paint40_linear_477_26018" x1="236.053" y1="363.659" x2="288.192" y2="372.178" gradientUnits="userSpaceOnUse">
<stop stop-color="white" stop-opacity="0.2"/>
<stop offset="1" stop-color="#83BCFF" stop-opacity="0.3"/>
</linearGradient>
<linearGradient id="paint41_linear_477_26018" x1="360.31" y1="170.308" x2="412.449" y2="178.828" gradientUnits="userSpaceOnUse">
<stop stop-color="white" stop-opacity="0.2"/>
<stop offset="1" stop-color="#83BCFF" stop-opacity="0.3"/>
</linearGradient>
<linearGradient id="paint42_linear_477_26018" x1="194.261" y1="347.414" x2="236.496" y2="354.315" gradientUnits="userSpaceOnUse">
<stop stop-color="#E6E6E6"/>
<stop offset="1" stop-color="#D7D7D7"/>
</linearGradient>
<linearGradient id="paint43_linear_477_26018" x1="276.997" y1="329.076" x2="326.833" y2="337.219" gradientUnits="userSpaceOnUse">
<stop stop-color="#2BF2FF"/>
<stop offset="0.0428141" stop-color="#29F0FF"/>
<stop offset="1" stop-color="#00C4FF"/>
</linearGradient>
</defs>
</svg>
